<?xml version="1.0" standalone="no"?>
<!DOCTYPE svg PUBLIC "-//W3C//DTD SVG 20010904//EN"
 "http://www.w3.org/TR/2001/REC-SVG-20010904/DTD/svg10.dtd">
<svg version="1.0" xmlns="http://www.w3.org/2000/svg"
 width="1080.000000pt" height="200.000000pt" viewBox="0 0 1080.000000 200.000000"
 preserveAspectRatio="xMidYMid meet">
<metadata>
Created by potrace 1.16, written by Peter Selinger 2001-2019
</metadata>
<g transform="translate(0.000000,200.000000) scale(0.100000,-0.100000)"
fill="#000000" stroke="none">
<path d="M1125 1581 c-3 -3 -22 -4 -41 -2 -20 1 -34 -2 -34 -9 0 -6 -4 -9 -9
-5 -14 8 -155 -23 -159 -35 -2 -6 -8 -8 -13 -4 -5 3 -9 1 -9 -5 0 -5 -25 -26
-55 -46 -30 -21 -55 -40 -55 -45 0 -4 -68 -65 -150 -135 -150 -127 -167 -149
-158 -200 6 -27 -7 -35 -51 -35 -16 0 -43 -5 -62 -12 -40 -13 -175 -130 -193
-167 -7 -14 -14 -63 -15 -108 -1 -73 1 -84 19 -93 11 -6 20 -17 20 -24 0 -7
14 -28 32 -47 l32 -33 261 -8 c143 -4 765 -8 1382 -10 l1123 -3 0 -23 c0 -22
40 -72 57 -72 5 0 13 -10 18 -22 l10 -23 1003 -3 c882 -2 1005 0 1018 13 22
22 276 22 294 0 11 -13 70 -15 425 -15 361 0 414 2 425 16 26 31 46 34 94 17
25 -10 46 -21 46 -25 0 -4 405 -8 901 -8 916 0 931 1 952 36 11 18 32 18 51
-2 9 -8 20 -12 26 -9 5 3 10 1 10 -5 0 -7 7 -10 15 -6 8 3 15 1 15 -4 0 -13
1405 -14 1428 -1 9 5 55 46 102 90 47 45 90 81 96 81 6 0 23 9 37 20 22 17 25
26 20 58 -7 43 -19 61 -50 73 -30 11 -29 20 5 41 47 30 63 42 95 73 60 57 378
329 506 432 60 49 91 100 91 152 0 44 -10 74 -24 72 -20 -3 -26 1 -26 19 0 11
-12 28 -27 37 -25 16 -63 18 -425 20 -365 3 -400 1 -419 -15 -24 -19 -100 -83
-139 -116 -14 -11 -51 -42 -82 -68 -31 -27 -61 -48 -67 -48 -6 0 -11 -4 -11
-10 0 -10 -1192 -15 -1202 -5 -3 3 10 21 28 39 49 49 46 104 -7 132 -16 8 -29
20 -29 27 -1 6 -10 23 -21 37 l-21 25 -402 0 c-373 0 -403 -1 -435 -19 -19
-10 -42 -28 -51 -39 l-17 -20 -21 21 c-11 11 -23 17 -27 14 -3 -4 -10 0 -14 7
-5 7 -20 14 -35 14 -14 1 -26 6 -26 11 0 4 -11 5 -25 2 -14 -4 -25 -2 -25 3 0
11 -5995 13 -6005 2z m6006 -81 c57 -11 121 -39 125 -55 2 -5 -38 -44 -89 -86
-51 -42 -206 -173 -345 -292 -139 -119 -267 -220 -285 -226 -141 -47 -74 -45
-1670 -48 -931 -2 -1498 0 -1495 6 1 5 125 113 273 240 l270 231 373 0 c204 0
372 -4 372 -8 0 -5 -65 -64 -144 -131 -80 -67 -150 -129 -157 -137 -11 -13 90
-14 837 -12 849 3 849 3 914 25 125 44 237 126 280 206 27 51 22 91 -12 101
-13 3 -1112 6 -2444 6 l-2420 0 -44 -37 -44 -38 1130 -5 c1070 -5 1131 -6
1158 -23 15 -10 26 -22 24 -26 -2 -5 -90 -83 -196 -175 -123 -107 -207 -172
-233 -181 -22 -8 -88 -21 -147 -30 -94 -14 -280 -15 -1492 -13 -1261 3 -1388
4 -1421 19 -20 10 -39 21 -43 27 -3 5 28 40 70 76 l75 66 1191 0 1190 0 39 31
c21 17 39 34 39 37 0 4 -496 7 -1103 7 -1049 0 -1104 1 -1150 19 -28 10 -47
23 -45 31 2 7 92 90 201 183 215 185 207 181 372 207 103 16 5960 21 6046 5z
m1039 1 c0 -4 -62 -61 -137 -126 -76 -65 -139 -121 -141 -126 -2 -5 342 -9
798 -9 l801 0 156 135 157 135 378 0 c208 0 378 -3 377 -7 0 -11 -745 -645
-774 -661 -13 -6 -55 -20 -92 -29 -62 -15 -191 -17 -1383 -20 -723 -2 -1398
-2 -1500 -1 l-184 3 106 93 106 92 1172 0 1172 0 41 33 41 32 -1104 5 c-840 4
-1114 9 -1141 18 -77 26 -78 25 173 241 l233 201 373 0 c204 0 372 -4 372 -9z
m-1940 -348 c0 -1 -29 -16 -63 -33 -65 -31 -79 -36 -157 -50 -25 -5 -328 -9
-674 -9 -558 -1 -627 1 -616 14 7 8 17 15 23 15 14 0 57 41 57 54 0 8 211 11
715 11 393 0 715 -1 715 -2z m-2300 -477 c0 -3 -25 -25 -56 -50 l-56 -46 164
0 163 0 62 50 c60 49 64 50 127 50 37 0 66 -4 66 -10 0 -5 -3 -10 -7 -10 -5 0
-28 -18 -53 -40 l-45 -39 208 -1 c114 0 207 3 207 8 0 4 -78 7 -174 7 -96 0
-178 4 -183 8 -9 10 39 53 75 68 33 13 1089 12 1097 -1 4 -7 12 -7 25 0 23 13
540 14 540 1 0 -18 -35 -21 -230 -21 -122 0 -201 -4 -205 -10 -4 -7 61 -10
187 -10 183 0 191 -1 175 -17 -16 -16 -43 -18 -219 -21 -111 -1 -204 -4 -206
-7 -3 -3 89 -5 205 -5 l210 0 63 50 c62 49 63 50 134 50 59 0 89 -7 178 -41
l107 -41 49 40 48 41 427 1 c235 0 427 -2 427 -4 0 -3 -36 -35 -81 -71 -81
-65 -81 -65 -145 -65 -35 0 -64 3 -64 8 0 4 26 27 57 52 l58 45 -200 3 c-110
1 -206 -1 -215 -5 -8 -5 66 -10 164 -13 117 -3 181 -9 183 -16 2 -6 -15 -24
-38 -40 l-42 -29 -264 -3 c-144 -2 -263 0 -263 4 0 4 8 13 18 20 13 10 67 13
220 14 111 0 202 3 202 8 0 4 -78 7 -174 7 -96 0 -178 4 -183 8 -4 5 8 22 27
39 59 50 10 18 -67 -44 -70 -57 -72 -58 -135 -58 -51 0 -85 8 -167 40 -56 22
-108 40 -115 40 -8 0 -36 -18 -64 -40 l-50 -40 -351 0 c-193 0 -351 2 -351 5
0 3 15 19 33 35 l32 30 -28 -10 c-16 -5 -116 -10 -224 -10 -194 0 -195 0 -225
-25 -25 -21 -40 -25 -95 -25 -35 0 -63 4 -61 9 2 5 28 28 58 52 l55 44 -200 3
c-110 1 -206 -1 -215 -5 -8 -5 66 -10 164 -13 126 -4 181 -9 183 -17 3 -6 -15
-24 -38 -40 l-43 -28 -570 0 c-530 0 -571 1 -570 17 2 16 0 16 -24 0 -23 -15
-62 -17 -289 -20 -258 -3 -294 1 -244 28 12 6 101 10 220 10 111 0 201 3 201
8 0 4 -75 6 -167 5 -181 -3 -209 3 -179 36 44 49 59 51 419 51 185 0 337 -2
337 -4z m4125 -5 c7 -12 -99 -99 -143 -118 -25 -10 -92 -13 -309 -11 -173 2
-277 7 -279 13 -2 6 20 28 48 50 100 79 81 75 395 75 163 0 284 -4 288 -9z
m293 -31 c57 -22 109 -37 115 -33 7 3 31 22 54 40 39 32 45 34 110 31 l68 -3
-84 -67 c-84 -68 -85 -68 -146 -68 -48 0 -86 9 -169 40 -58 22 -111 40 -117
40 -6 0 -34 -18 -61 -40 -47 -37 -55 -40 -115 -40 -36 0 -63 4 -61 9 2 5 37
36 78 70 l75 60 75 1 c64 0 90 -6 178 -40z m892 25 c-10 -12 -47 -15 -216 -15
-124 0 -205 -4 -209 -10 -4 -7 58 -10 179 -10 175 0 207 -5 174 -27 -7 -4
-107 -10 -223 -13 -171 -5 -135 -6 197 -8 224 -1 409 1 411 6 3 4 -70 6 -162
5 -184 -2 -207 3 -176 37 43 48 58 50 336 50 231 0 260 -2 249 -15 -10 -12
-47 -15 -214 -15 -112 0 -208 -5 -216 -10 -10 -6 43 -10 160 -10 96 0 181 -4
188 -8 17 -12 -35 -60 -79 -72 -44 -13 -1082 -14 -1077 -1 2 5 37 36 78 70
l75 60 269 1 c237 0 267 -2 256 -15z"/>
<path d="M7534 619 c-22 -17 -41 -33 -43 -35 -2 -2 70 -4 161 -4 l165 0 39 35
39 34 -161 1 -161 0 -39 -31z"/>
</g>
</svg>
